<?xml version="1.0" encoding="utf-8"?>
<!-- Generator: Adobe Illustrator 19.0.1, SVG Export Plug-In . SVG Version: 6.00 Build 0)  -->
<!DOCTYPE svg PUBLIC "-//W3C//DTD SVG 1.1//EN" "http://www.w3.org/Graphics/SVG/1.1/DTD/svg11.dtd">
<svg version="1.1" id="Layer_1" xmlns="http://www.w3.org/2000/svg" xmlns:xlink="http://www.w3.org/1999/xlink" x="0px" y="0px"
	 viewBox="0 0 122.9 26.6" enable-background="new 0 0 122.9 26.6" xml:space="preserve">
<g>
	<path fill="#FFFFFF" d="M15.3,16.7H7.9v9.9H0V0h7.9v10.1h7.4V0h7.9v26.6h-7.9V16.7z"/>
	<path fill="#FFFFFF" d="M35.8,5.9v4.6H45v5.7h-9.2v4.4H45v5.9H27.9V0H45v5.9H35.8z"/>
	<path fill="#FFFFFF" d="M64.3,19.8v6.8H49.4V0h7.9v19.8H64.3z"/>
	<path fill="#FFFFFF" d="M67.6,0h12.8c6.1,0,10,4.6,10,9.9c0,5.3-3.9,9.9-10,9.9h-4.9v6.8h-7.9V0z M82.3,9.9c0-2.1-1.4-3.8-3.5-3.8
		h-3.3v7.5h3.3C80.9,13.7,82.3,12,82.3,9.9z"/>
	<path fill="#FFFFFF" d="M93.1,0h8v26.6h-8V0z"/>
	<path fill="#FFFFFF" d="M113.7,5.9v4.6h9.2v5.7h-9.2v4.4h9.2v5.9h-17.1V0h17.1v5.9H113.7z"/>
</g>
</svg>
